{
    "asset" : {
        "generator" : "Khronos glTF Blender I/O v1.6.16",
        "version" : "2.0"
    },
    "scene" : 0,
    "scenes" : [
        {
            "name" : "Scene",
            "nodes" : [
                0,
                1,
                2
            ]
        }
    ],
    "nodes" : [
        {
            "name" : "Light",
            "rotation" : [
                0.16907575726509094,
                0.7558803558349609,
                -0.27217137813568115,
                0.570947527885437
            ],
            "scale" : [
                10,
                1,
                1
            ],
            "translation" : [
                4.076245307922363,
                5.903861999511719,
                -1.0054539442062378
            ]
        },
        {
            "name" : "Camera",
            "rotation" : [
                0.483536034822464,
                0.33687159419059753,
                -0.20870360732078552,
                0.7804827094078064
            ],
            "translation" : [
                7.358891487121582,
                4.958309173583984,
                6.925790786743164
            ]
        },
        {
            "mesh" : 0,
            "name" : "teste",
            "scale" : [
                20,
                20,
                20
            ],
            "translation" : [
                -2.5,
                0,
                2.5
            ]
        }
    ],
    "meshes" : [
        {
            "name" : "teste",
            "primitives" : [
                {
                    "attributes" : {
                        "POSITION" : 0,
                        "NORMAL" : 1
                    },
                    "indices" : 2
                }
            ]
        }
    ],
    "accessors" : [
        {
            "bufferView" : 0,
            "componentType" : 5126,
            "count" : 1824,
            "max" : [
                0.13996680080890656,
                0.14000000059604645,
                0
            ],
            "min" : [
                3.319978713989258e-05,
                0,
                -0.2199999988079071
            ],
            "type" : "VEC3"
        },
        {
            "bufferView" : 1,
            "componentType" : 5126,
            "count" : 1824,
            "type" : "VEC3"
        },
        {
            "bufferView" : 2,
            "componentType" : 5123,
            "count" : 2244,
            "type" : "SCALAR"
        }
    ],
    "bufferViews" : [
        {
            "buffer" : 0,
            "byteLength" : 21888,
            "byteOffset" : 0
        },
        {
            "buffer" : 0,
            "byteLength" : 21888,
            "byteOffset" : 21888
        },
        {
            "buffer" : 0,
            "byteLength" : 4488,
            "byteOffset" : 43776
        }
    ],
    "buffers" : [
        {
            "byteLength" : 48264,
            "uri" : "data:application/octet-stream;base64,"
        }
    ]
}
