{
    "asset" : {
        "generator" : "Khronos glTF Blender I/O v1.6.16",
        "version" : "2.0"
    },
    "scene" : 0,
    "scenes" : [
        {
            "name" : "Scene",
            "nodes" : [
                0
            ]
        }
    ],
    "nodes" : [
        {
            "mesh" : 0,
            "name" : "Text",
            "rotation" : [
                -0.7052707076072693,
                -0.020897386595606804,
                0.010052082128822803,
                -0.7085587382316589
            ],
            "translation" : [
                -4.389655590057373,
                4.37799596786499,
                -0.43221911787986755
            ]
        }
    ],
    "materials" : [
        {
            "doubleSided" : true,
            "name" : "Material",
            "pbrMetallicRoughness" : {
                "baseColorFactor" : [
                    0.800000011920929,
                    0.800000011920929,
                    0.800000011920929,
                    1
                ],
                "metallicFactor" : 0,
                "roughnessFactor" : 0.4000000059604645
            }
        }
    ],
    "meshes" : [
        {
            "name" : "Text",
            "primitives" : [
                {
                    "attributes" : {
                        "POSITION" : 0,
                        "NORMAL" : 1,
                        "TEXCOORD_0" : 2
                    },
                    "indices" : 3,
                    "material" : 0
                }
            ]
        }
    ],
    "accessors" : [
        {
            "bufferView" : 0,
            "componentType" : 5126,
            "count" : 8216,
            "max" : [
                8.058000564575195,
                0.04999998211860657,
                2.009000062942505
            ],
            "min" : [
                0.07000000029802322,
                -0.04999998211860657,
                -0.8740000128746033
            ],
            "type" : "VEC3"
        },
        {
            "bufferView" : 1,
            "componentType" : 5126,
            "count" : 8216,
            "type" : "VEC3"
        },
        {
            "bufferView" : 2,
            "componentType" : 5126,
            "count" : 8216,
            "type" : "VEC2"
        },
        {
            "bufferView" : 3,
            "componentType" : 5123,
            "count" : 15204,
            "type" : "SCALAR"
        }
    ],
    "bufferViews" : [
        {
            "buffer" : 0,
            "byteLength" : 98592,
            "byteOffset" : 0
        },
        {
            "buffer" : 0,
            "byteLength" : 98592,
            "byteOffset" : 98592
        },
        {
            "buffer" : 0,
            "byteLength" : 65728,
            "byteOffset" : 197184
        },
        {
            "buffer" : 0,
            "byteLength" : 30408,
            "byteOffset" : 262912
        }
    ],
    "buffers" : [
        {
            "byteLength" : 293320,
            "uri" : "data:application/octet-stream;base64,"
        }
    ]
}
