{
    "asset" : {
        "generator" : "Khronos glTF Blender I/O v1.6.16",
        "version" : "2.0"
    },
    "extensionsUsed" : [
        "KHR_lights_punctual"
    ],
    "extensionsRequired" : [
        "KHR_lights_punctual"
    ],
    "extensions" : {
        "KHR_lights_punctual" : {
            "lights" : [
                {
                    "color" : [
                        1,
                        1,
                        1
                    ],
                    "intensity" : 10,
                    "type" : "directional",
                    "name" : "Light"
                }
            ]
        }
    },
    "scene" : 0,
    "scenes" : [
        {
            "name" : "Scene",
            "nodes" : [
                1,
                2
            ]
        }
    ],
    "nodes" : [
        {
            "extensions" : {
                "KHR_lights_punctual" : {
                    "light" : 0
                }
            },
            "name" : "Light_Orientation",
            "rotation" : [
                -0.7071067690849304,
                0,
                0,
                0.7071067690849304
            ]
        },
        {
            "children" : [
                0
            ],
            "name" : "Light",
            "rotation" : [
                0.27896952629089355,
                0.6977348327636719,
                -0.28610050678253174,
                0.5945490598678589
            ],
            "scale" : [
                10,
                1,
                1
            ],
            "translation" : [
                4.076245307922363,
                5.903861999511719,
                -1.0054539442062378
            ]
        },
        {
            "mesh" : 0,
            "name" : "teste",
            "scale" : [
                20,
                20,
                20
            ],
            "translation" : [
                -2.5,
                0,
                2.5
            ]
        }
    ],
    "materials" : [
        {
            "doubleSided" : true,
            "name" : "Material",
            "pbrMetallicRoughness" : {
                "baseColorFactor" : [
                    0.8000000715255737,
                    0.012919956818223,
                    0,
                    1
                ],
                "metallicFactor" : 0.3052631616592407,
                "roughnessFactor" : 0.4000000059604645
            }
        },
        {
            "doubleSided" : true,
            "name" : "Material.002",
            "pbrMetallicRoughness" : {
                "baseColorFactor" : [
                    0,
                    0.009349062107503414,
                    0.8000000715255737,
                    1
                ],
                "metallicFactor" : 0,
                "roughnessFactor" : 0.5
            }
        }
    ],
    "meshes" : [
        {
            "name" : "teste",
            "primitives" : [
                {
                    "attributes" : {
                        "POSITION" : 0,
                        "NORMAL" : 1
                    },
                    "indices" : 2,
                    "material" : 0
                },
                {
                    "attributes" : {
                        "POSITION" : 3,
                        "NORMAL" : 4
                    },
                    "indices" : 5,
                    "material" : 1
                }
            ]
        }
    ],
    "accessors" : [
        {
            "bufferView" : 0,
            "componentType" : 5126,
            "count" : 851,
            "max" : [
                0.13996680080890656,
                0.14000000059604645,
                0
            ],
            "min" : [
                3.319978713989258e-05,
                0,
                -0.2199999988079071
            ],
            "type" : "VEC3"
        },
        {
            "bufferView" : 1,
            "componentType" : 5126,
            "count" : 851,
            "type" : "VEC3"
        },
        {
            "bufferView" : 2,
            "componentType" : 5123,
            "count" : 1464,
            "type" : "SCALAR"
        },
        {
            "bufferView" : 3,
            "componentType" : 5126,
            "count" : 366,
            "max" : [
                0.13996680080890656,
                0.14000000059604645,
                0
            ],
            "min" : [
                3.319978713989258e-05,
                0,
                -0.2199999988079071
            ],
            "type" : "VEC3"
        },
        {
            "bufferView" : 4,
            "componentType" : 5126,
            "count" : 366,
            "type" : "VEC3"
        },
        {
            "bufferView" : 5,
            "componentType" : 5123,
            "count" : 780,
            "type" : "SCALAR"
        }
    ],
    "bufferViews" : [
        {
            "buffer" : 0,
            "byteLength" : 10212,
            "byteOffset" : 0
        },
        {
            "buffer" : 0,
            "byteLength" : 10212,
            "byteOffset" : 10212
        },
        {
            "buffer" : 0,
            "byteLength" : 2928,
            "byteOffset" : 20424
        },
        {
            "buffer" : 0,
            "byteLength" : 4392,
            "byteOffset" : 23352
        },
        {
            "buffer" : 0,
            "byteLength" : 4392,
            "byteOffset" : 27744
        },
        {
            "buffer" : 0,
            "byteLength" : 1560,
            "byteOffset" : 32136
        }
    ],
    "buffers" : [
        {
            "byteLength" : 33696,
            "uri" : "data:application/octet-stream;base64,"
        }
    ]
}
